<?xml version="1.0" encoding="UTF-8"?>
<!-- Do not edit this file with editors other than draw.io -->
<!DOCTYPE svg PUBLIC "-//W3C//DTD SVG 1.1//EN" "http://www.w3.org/Graphics/SVG/1.1/DTD/svg11.dtd">
<svg xmlns="http://www.w3.org/2000/svg" style="background: transparent; background-color: transparent; color-scheme: light dark;" xmlns:xlink="http://www.w3.org/1999/xlink" version="1.1" width="130px" height="120px" viewBox="-0.5 -0.5 130 120" content="&lt;mxfile host=&quot;Electron&quot; agent=&quot;Mozilla/5.0 (Windows NT 10.0; Win64; x64) AppleWebKit/537.36 (KHTML, like Gecko) draw.io/27.0.9 Chrome/134.0.6998.205 Electron/35.4.0 Safari/537.36&quot; version=&quot;27.0.9&quot; scale=&quot;1&quot; border=&quot;0&quot;&gt;&#10;  &lt;diagram name=&quot;Page-1&quot; id=&quot;-tKGQD7dwnA6-GXJSCAt&quot;&gt;&#10;    &lt;mxGraphModel dx=&quot;496&quot; dy=&quot;298&quot; grid=&quot;1&quot; gridSize=&quot;10&quot; guides=&quot;1&quot; tooltips=&quot;1&quot; connect=&quot;1&quot; arrows=&quot;1&quot; fold=&quot;1&quot; page=&quot;1&quot; pageScale=&quot;1&quot; pageWidth=&quot;827&quot; pageHeight=&quot;1169&quot; math=&quot;0&quot; shadow=&quot;0&quot;&gt;&#10;      &lt;root&gt;&#10;        &lt;mxCell id=&quot;0&quot; /&gt;&#10;        &lt;mxCell id=&quot;1&quot; parent=&quot;0&quot; /&gt;&#10;        &lt;mxCell id=&quot;dIR6n8yQeL_2LDJHfJ77-1&quot; value=&quot;&quot; style=&quot;sketch=0;pointerEvents=1;shadow=0;dashed=0;html=1;strokeColor=none;fillColor=light-dark(#E9E9EA,#E9E9EA);labelPosition=center;verticalLabelPosition=bottom;verticalAlign=top;outlineConnect=0;align=center;shape=mxgraph.office.concepts.globe_internet;gradientColor=light-dark(#A0A0A0,#A0A0A0);&quot; vertex=&quot;1&quot; parent=&quot;1&quot;&gt;&#10;          &lt;mxGeometry x=&quot;430&quot; y=&quot;300&quot; width=&quot;130&quot; height=&quot;120&quot; as=&quot;geometry&quot; /&gt;&#10;        &lt;/mxCell&gt;&#10;      &lt;/root&gt;&#10;    &lt;/mxGraphModel&gt;&#10;  &lt;/diagram&gt;&#10;&lt;/mxfile&gt;&#10;"><defs><linearGradient x1="0%" y1="0%" x2="0%" y2="100%" id="drawio-svg-AwnG15HsJYOfPfwPYjlC-gradient-_e9e9ea-1-_a0a0a0-1-s-0"><stop offset="0%" stop-color="#E9E9EA" stop-opacity="1" style="stop-color: rgb(233, 233, 234); stop-opacity: 1;"/><stop offset="100%" stop-color="#A0A0A0" stop-opacity="1" style="stop-color: rgb(160, 160, 160); stop-opacity: 1;"/></linearGradient><style type="text/css">@import url(https://fonts.googleapis.com/css2?family=Architects+Daughter:wght@400;500);&#xa;</style></defs><g><g data-cell-id="0"><g data-cell-id="1"><g data-cell-id="dIR6n8yQeL_2LDJHfJ77-1"><g><rect x="0" y="0" width="130" height="120" fill="none" stroke="none" pointer-events="all"/><path d="M 87.88 3.73 C 96.43 6.57 102.62 10.75 107.83 15.5 C 104.87 17.05 101.69 18.59 98.02 19.95 C 94.31 11.67 91.06 7.27 87.88 3.73 Z M 100.74 25.9 C 105.21 24.2 109.42 22.25 113.31 19.97 C 122.41 29.66 124.47 36.16 126.85 42.34 C 120.42 46.44 113.68 49.95 106.19 52.1 C 105.4 44.17 104.23 35.94 100.74 25.9 Z M 106.32 58.31 C 114.87 55.91 122.14 52.75 128.15 48.82 C 130 59.77 129.18 66.34 127.91 72.12 C 118.23 78.9 110.61 81.81 103.15 84.46 C 104.18 78.9 105.13 81.44 106.32 58.31 Z M 100.95 92.17 C 107.8 90.17 114.79 87.99 124.89 81.96 C 115.95 101.83 100.53 112.04 87.04 116.42 C 91.96 111.27 96.77 104.97 100.95 92.17 Z M 92.91 94.1 C 86.3 110.48 76.77 117.97 68.54 119.7 L 68.54 97.19 C 77.04 96.96 85.19 96 92.91 94.1 Z M 68.49 91.06 L 68.49 64.86 C 76.8 65.05 87.65 63.3 99.37 60.85 C 99.39 71.98 97.65 79.81 95.71 87.32 C 84.76 90.09 76.32 90.81 68.49 91.06 Z M 68.89 58.28 L 68.89 31.69 C 77.57 31.29 86.06 30.18 94.29 27.88 C 97.09 35.57 98.62 44.64 99.71 54.13 C 90.24 56.7 79.87 57.94 68.89 58.28 Z M 68.2 0 L 70.87 0 C 77.01 1.9 81.32 6.4 83.81 9.32 C 87.54 13.74 89.6 17.8 91.56 21.82 C 85.29 23.48 78.02 24.99 68.2 25.33 Z M 61.75 25.66 C 53.97 25.33 46.32 24.15 38.76 22.12 C 41.3 16.34 44.55 11.02 49.05 6.55 C 51.77 4.03 54.74 1.66 59.07 0.32 L 61.75 0.32 Z M 62.09 58.33 C 50.42 57.91 40.24 56.45 31.24 54.15 C 31.85 46.52 32.06 39.27 36.67 27.91 C 46.8 30.87 58.54 31.71 62.12 31.64 Z M 61.75 64.58 L 61.77 90.83 C 52.83 91.06 43.92 89.62 34.97 87.47 C 32.14 78.13 30.93 69.21 30.98 60.58 C 41.08 63.18 51.35 64.39 61.75 64.58 Z M 61.75 97.53 L 61.75 120 C 56.96 119.04 52.96 116.59 49.44 113.28 C 43.86 107.94 40.11 101.49 37.3 95.01 C 45.42 96.54 53.54 97.68 61.75 97.53 Z M 29.44 92.69 C 34.02 105.76 38.89 111.3 43.78 116.56 C 22.43 109.05 12.01 95.36 6.24 83.69 C 13.84 87.37 21.43 91.06 29.44 92.69 Z M 2.72 74.05 C 0.58 66.88 0 58.65 1.8 48.82 C 7.99 52.37 14.92 55.74 24.07 58.6 C 24.05 68.24 25.05 77.09 27.17 85.12 C 20.45 83.37 12.75 80.28 2.72 74.05 Z M 3.81 42.39 C 6.61 33.61 11.32 26.27 17.41 19.97 C 21.8 22.74 25.82 24.2 29.89 25.95 C 26.51 34.58 25.03 44.19 24.5 52.2 C 17.96 50.03 11.43 47.75 3.81 42.39 Z M 22.09 15.2 C 29.05 9.74 35.82 6.06 42.46 3.76 C 39.07 7.49 35.61 12.26 31.96 19.63 C 28.25 18.14 24.89 16.68 22.09 15.2 Z" fill="url(#drawio-svg-AwnG15HsJYOfPfwPYjlC-gradient-_e9e9ea-1-_a0a0a0-1-s-0)" stroke="none" pointer-events="all" style="fill: url(&quot;#drawio-svg-AwnG15HsJYOfPfwPYjlC-gradient-_e9e9ea-1-_a0a0a0-1-s-0&quot;);"/></g></g></g></g></g></svg>